<?xml version="1.0" encoding="utf-8"?>
<!-- Generator: Adobe Illustrator 26.2.1, SVG Export Plug-In . SVG Version: 6.00 Build 0)  -->
<svg version="1.1" id="Layer_1" xmlns="http://www.w3.org/2000/svg" xmlns:xlink="http://www.w3.org/1999/xlink" x="0px" y="0px"
	 viewBox="0 0 1080 1080" style="enable-background:new 0 0 1080 1080;" xml:space="preserve">
<style type="text/css">
	.st0{fill:#505358;}
	.st1{fill:#0D7DFD;}
</style>
<g>
	<g>
		<path class="st0" d="M465.4,582.2c-0.8-0.8-1.2-1.7-1.2-2.8V471c0-1.2,0.4-2.2,1.1-3c0.7-0.8,1.7-1.2,2.9-1.2h15
			c1.2,0,2.2,0.4,3,1.2c0.8,0.8,1.2,1.8,1.2,3v39l37.1-40.1c1.7-2,3.8-3,6.5-3h17c0.9,0,1.7,0.3,2.4,1c0.7,0.7,1.1,1.5,1.1,2.5
			c0,0.8-0.3,1.4-0.8,2l-45.3,50.3l48.6,55.1c0.4,0.8,0.7,1.5,0.7,2.2c0,1-0.3,1.8-1,2.5c-0.7,0.7-1.4,1-2.3,1h-17.5
			c-2.3,0-4-0.5-5-1.4c-1-0.9-1.6-1.5-1.7-1.6l-39.8-44v43c0,1.1-0.4,2.1-1.2,2.8c-0.8,0.8-1.8,1.2-3,1.2h-15
			C467.2,583.4,466.2,583,465.4,582.2z"/>
		<path class="st0" d="M571.4,617.5c-0.7-0.7-1.1-1.4-1.1-2.3c0-0.8,0.2-1.7,0.7-2.7l14.3-34.3l-32-75.4c-0.4-1-0.7-1.8-0.7-2.3
			c0.1-1,0.5-1.9,1.2-2.6c0.7-0.7,1.5-1.1,2.5-1.1h13.8c2,0,3.4,1.1,4.3,3.2l22.1,54.3l22.5-54.3c1.1-2.1,2.7-3.2,4.7-3.2h13.5
			c1,0,1.8,0.3,2.5,1c0.7,0.7,1,1.4,1,2.3c0,0.8-0.2,1.7-0.7,2.7l-48.3,112.6c-0.9,2.1-2.4,3.2-4.7,3.2h-13.3
			C572.9,618.5,572.1,618.2,571.4,617.5z"/>
		<path class="st0" d="M656.4,582.2c-0.8-0.8-1.2-1.7-1.2-2.8V469.1c0-1.2,0.4-2.2,1.2-2.9c0.8-0.7,1.7-1.1,2.8-1.1h14
			c1.2,0,2.2,0.4,2.9,1.1c0.7,0.7,1.1,1.7,1.1,2.9v110.2c0,1.1-0.4,2.1-1.1,2.8c-0.7,0.8-1.7,1.2-2.9,1.2h-14
			C658.1,583.4,657.2,583,656.4,582.2z"/>
		<path class="st0" d="M708.9,581.6c-4.7-2.3-8.4-5.4-11.2-9.2c-2.7-3.9-4.1-8.2-4.1-12.8c0-7.5,3.1-13.7,9.2-18.3
			c6.1-4.7,14.5-7.8,25.1-9.5l22.8-3.3v-3.5c0-4.8-1.2-8.4-3.7-10.8c-2.4-2.4-6.3-3.7-11.7-3.7c-3.7,0-6.6,0.7-8.8,2
			c-2.2,1.3-4,2.7-5.4,4.1c-1.4,1.4-2.3,2.3-2.7,2.7c-0.4,1.3-1.3,2-2.5,2h-13c-1,0-1.9-0.3-2.6-1c-0.7-0.7-1.1-1.6-1.1-2.7
			c0.1-2.8,1.5-5.9,4.1-9.4c2.6-3.5,6.6-6.5,12.1-9.2c5.4-2.6,12.2-3.9,20.1-3.9c13.1,0,22.6,2.9,28.6,8.8c6,5.9,9,13.6,9,23.1v52.3
			c0,1.1-0.4,2.1-1.1,2.8c-0.7,0.8-1.7,1.2-2.9,1.2h-13.8c-1.1,0-2.1-0.4-2.8-1.2c-0.8-0.8-1.2-1.7-1.2-2.8v-6.5
			c-2.4,3.6-5.9,6.5-10.3,8.7c-4.4,2.3-10,3.4-16.7,3.4C718.9,585,713.7,583.9,708.9,581.6z M745.2,563.1c3.9-4,5.8-9.8,5.8-17.3
			v-3.3l-16.7,2.7c-12.8,2-19.1,6.3-19.1,12.8c0,3.6,1.5,6.3,4.4,8.2c2.9,1.9,6.5,2.9,10.6,2.9C736.3,569,741.3,567.1,745.2,563.1z"
			/>
		<path class="st0" d="M806.4,581.2c-5.7-2.6-9.9-5.5-12.6-8.9c-2.7-3.4-4.1-6.3-4.1-8.7c0-1.1,0.4-2,1.1-2.7c0.7-0.7,1.6-1,2.6-1
			h13.7c0.9,0,1.7,0.4,2.3,1.3c0.6,0.4,1.8,1.5,3.7,3.2c1.9,1.7,4.2,3,6.7,3.9c2.5,0.9,5.2,1.4,8.2,1.4c4.4,0,8-0.9,10.8-2.6
			c2.8-1.7,4.2-4.2,4.2-7.4c0-2.2-0.6-4-1.9-5.4c-1.3-1.4-3.6-2.7-6.8-3.8c-3.3-1.2-8.2-2.5-14.7-3.9c-9.4-2-16.4-5-20.9-9.2
			c-4.5-4.1-6.7-9.5-6.7-16.3c0-4.4,1.3-8.6,4-12.6c2.7-3.9,6.6-7.2,11.9-9.7c5.3-2.5,11.6-3.7,18.9-3.7c7.5,0,14,1.2,19.5,3.6
			c5.4,2.4,9.6,5.2,12.4,8.6c2.8,3.3,4.2,6.3,4.2,8.8c0,1-0.4,1.9-1.1,2.6c-0.7,0.7-1.6,1.1-2.6,1.1h-12.5c-1.2,0-2.2-0.4-2.8-1.3
			c-0.8-0.6-2-1.6-3.7-3.1c-1.7-1.5-3.6-2.7-5.7-3.6c-2.1-0.9-4.7-1.3-7.7-1.3c-4.1,0-7.3,0.9-9.5,2.7c-2.2,1.8-3.3,4.1-3.3,7
			c0,2,0.5,3.7,1.6,5c1.1,1.3,3.2,2.6,6.4,3.7c3.2,1.2,8,2.4,14.5,3.6c20,3.9,30,12.6,30,26.1c0,7.9-3.4,14.3-10.2,19.1
			c-6.8,4.9-16.3,7.3-28.6,7.3C819.1,585,812.1,583.8,806.4,581.2z"/>
	</g>
	<path class="st1" d="M404.5,619.7h-23.2c-6,0-10.8-4.8-10.8-10.8c0-6,4.9-10.8,10.8-10.8h18.4l-58.7-117.3l-26.4,52.9l30.7,59.6
		c0,0,0,0.1,0.1,0.1c2.8,5.7,2.5,12.3-0.8,17.7c-3.3,5.4-9.1,8.6-15.5,8.6l-51.4,0c-6.5,0-12.5-3.3-16-8.9
		c-3.4-5.6-3.7-12.4-0.8-18.2l29.4-58.8l-8.4-16.3l-47.9,96.3c-2.7,5.4-9.2,7.5-14.5,4.9c-5.4-2.7-7.5-9.2-4.9-14.5l50.9-102.4
		c3.1-6.2,9.4-10.1,16.3-10.1c6.9,0,13.1,3.8,16.3,10l4.2,8.1l22-43.9c3.2-6.4,9.6-10.4,16.8-10.4c7.1,0,13.6,4,16.8,10.4
		l63.4,126.8c2.9,5.9,2.6,12.7-0.8,18.2C417,616.3,411.1,619.7,404.5,619.7z M302.7,557.6L282.5,598l41.1,0L302.7,557.6z"/>
	<g>
		<path class="st0" d="M627.4,617.9c-1.5,0-2.8-0.2-3.8-0.7c-1-0.5-1.8-1.1-2.4-1.8c-0.6-0.7-0.8-1.5-0.9-2.3c0-0.1,0.1-0.3,0.2-0.4
			c0.1-0.1,0.2-0.2,0.4-0.2h1.3c0.2,0,0.4,0.1,0.5,0.2c0.1,0.1,0.2,0.2,0.2,0.4c0.1,0.4,0.3,0.8,0.7,1.2c0.3,0.4,0.8,0.8,1.4,1
			c0.6,0.3,1.4,0.4,2.4,0.4c1.5,0,2.6-0.3,3.3-0.8c0.7-0.5,1.1-1.2,1.1-2.1c0-0.6-0.2-1.1-0.6-1.5c-0.4-0.4-0.9-0.7-1.7-1
			c-0.8-0.3-1.8-0.6-3-1c-1.3-0.4-2.3-0.8-3.2-1.2s-1.5-1-1.9-1.6s-0.6-1.5-0.6-2.5c0-0.9,0.3-1.8,0.8-2.5c0.5-0.7,1.2-1.3,2.2-1.8
			s2.1-0.7,3.5-0.7c1.1,0,2,0.1,2.8,0.4c0.8,0.3,1.5,0.7,2,1.2c0.5,0.5,1,1,1.2,1.5c0.3,0.5,0.4,1.1,0.4,1.6c0,0.1,0,0.2-0.1,0.4
			c-0.1,0.1-0.2,0.2-0.4,0.2h-1.4c-0.1,0-0.2,0-0.4-0.1c-0.1-0.1-0.2-0.2-0.3-0.4c-0.1-0.7-0.5-1.3-1.2-1.8
			c-0.7-0.5-1.6-0.7-2.7-0.7c-1.1,0-2.1,0.2-2.8,0.7c-0.7,0.4-1.1,1.1-1.1,2c0,0.6,0.2,1.1,0.5,1.5c0.3,0.4,0.9,0.7,1.6,1
			c0.7,0.3,1.7,0.6,2.8,0.9c1.4,0.4,2.5,0.8,3.4,1.2c0.9,0.4,1.6,1,2,1.6c0.4,0.6,0.6,1.5,0.6,2.5c0,1.1-0.3,2-0.9,2.8
			c-0.6,0.8-1.4,1.4-2.4,1.8S628.9,617.9,627.4,617.9z"/>
		<path class="st0" d="M643,617.9c-1.2,0-2.3-0.2-3.2-0.7c-0.9-0.5-1.6-1.2-2.1-2.1c-0.5-0.9-0.8-2-0.8-3.2c0-0.3,0-0.6,0-1
			c0-0.4,0-0.8,0-1c0-1.3,0.3-2.3,0.8-3.2c0.5-0.9,1.2-1.6,2.1-2.1c0.9-0.5,2-0.7,3.2-0.7c1,0,1.9,0.1,2.6,0.4
			c0.7,0.3,1.3,0.6,1.8,1.1s0.8,0.9,1.1,1.4c0.2,0.5,0.4,1,0.4,1.4c0,0.2,0,0.3-0.2,0.4c-0.1,0.1-0.3,0.2-0.4,0.2H647
			c-0.2,0-0.3,0-0.4-0.1c-0.1-0.1-0.2-0.2-0.3-0.4c-0.3-0.9-0.7-1.5-1.3-1.8c-0.5-0.3-1.2-0.5-2-0.5c-1,0-1.9,0.3-2.6,1
			s-1,1.7-1.1,3.1c0,0.6,0,1.2,0,1.8c0.1,1.5,0.4,2.5,1.1,3.1s1.5,1,2.6,1c0.8,0,1.5-0.2,2-0.5c0.5-0.3,1-1,1.3-1.8
			c0.1-0.2,0.2-0.3,0.3-0.4c0.1-0.1,0.2-0.1,0.4-0.1h1.3c0.2,0,0.3,0.1,0.4,0.2c0.1,0.1,0.2,0.3,0.2,0.4c0,0.4-0.1,0.7-0.2,1.1
			s-0.4,0.8-0.7,1.2c-0.3,0.4-0.7,0.7-1.1,1c-0.5,0.3-1,0.6-1.6,0.7C644.6,617.9,643.8,617.9,643,617.9z"/>
		<path class="st0" d="M655.8,617.9c-0.9,0-1.7-0.2-2.4-0.5c-0.7-0.3-1.3-0.8-1.7-1.4c-0.4-0.6-0.7-1.3-0.7-2c0-1.2,0.5-2.2,1.5-2.9
			c1-0.7,2.3-1.2,3.8-1.4l3.9-0.6v-0.8c0-0.8-0.2-1.5-0.7-2c-0.5-0.5-1.3-0.7-2.3-0.7c-0.8,0-1.4,0.2-1.9,0.5s-0.8,0.7-1,1.2
			c-0.1,0.3-0.3,0.4-0.5,0.4h-1.2c-0.2,0-0.3-0.1-0.4-0.2c-0.1-0.1-0.1-0.2-0.1-0.4c0-0.3,0.1-0.6,0.3-1c0.2-0.4,0.5-0.8,0.9-1.1
			c0.4-0.4,1-0.7,1.6-0.9c0.7-0.3,1.5-0.4,2.4-0.4c1,0,1.9,0.1,2.6,0.4c0.7,0.3,1.3,0.6,1.7,1.1c0.4,0.5,0.7,1,0.9,1.5
			s0.3,1.2,0.3,1.8v8.5c0,0.2-0.1,0.3-0.2,0.4c-0.1,0.1-0.3,0.2-0.4,0.2h-1.2c-0.2,0-0.3-0.1-0.4-0.2c-0.1-0.1-0.2-0.3-0.2-0.4V616
			c-0.2,0.3-0.5,0.6-0.9,0.9c-0.4,0.3-0.9,0.6-1.4,0.8C657.3,617.8,656.6,617.9,655.8,617.9z M656.3,616c0.7,0,1.4-0.2,2-0.5
			c0.6-0.3,1.1-0.8,1.4-1.4s0.5-1.5,0.5-2.4v-0.7l-3,0.4c-1.2,0.2-2.2,0.5-2.8,0.9c-0.6,0.4-0.9,0.9-0.9,1.6c0,0.5,0.1,0.9,0.4,1.2
			c0.3,0.3,0.7,0.6,1.1,0.7S655.8,616,656.3,616z"/>
		<path class="st0" d="M667.1,617.7c-0.2,0-0.3-0.1-0.4-0.2c-0.1-0.1-0.2-0.3-0.2-0.4v-17.4c0-0.2,0.1-0.3,0.2-0.4
			c0.1-0.1,0.3-0.2,0.4-0.2h1.2c0.2,0,0.3,0.1,0.4,0.2c0.1,0.1,0.2,0.3,0.2,0.4v17.4c0,0.2-0.1,0.3-0.2,0.4
			c-0.1,0.1-0.3,0.2-0.4,0.2H667.1z"/>
		<path class="st0" d="M678.3,617.9c-1.8,0-3.3-0.6-4.3-1.7c-1.1-1.1-1.7-2.6-1.8-4.5c0-0.2,0-0.5,0-0.9s0-0.7,0-0.9
			c0.1-1.2,0.4-2.3,0.9-3.3s1.2-1.7,2.1-2.2c0.9-0.5,1.9-0.8,3.1-0.8c1.3,0,2.4,0.3,3.3,0.8c0.9,0.6,1.6,1.4,2.1,2.4
			c0.5,1,0.7,2.2,0.7,3.6v0.4c0,0.2-0.1,0.3-0.2,0.4s-0.3,0.2-0.4,0.2h-9.1c0,0,0,0.1,0,0.1c0,0.1,0,0.1,0,0.1c0,0.7,0.2,1.4,0.5,2
			c0.3,0.6,0.7,1.1,1.2,1.5c0.5,0.4,1.2,0.6,1.9,0.6c0.6,0,1.2-0.1,1.6-0.3c0.4-0.2,0.8-0.4,1-0.6c0.3-0.2,0.4-0.4,0.5-0.6
			c0.2-0.2,0.3-0.3,0.4-0.4c0.1,0,0.2-0.1,0.4-0.1h1.3c0.2,0,0.3,0,0.4,0.1c0.1,0.1,0.2,0.2,0.1,0.4c0,0.3-0.2,0.6-0.4,1
			c-0.3,0.4-0.6,0.7-1.1,1.1c-0.5,0.4-1.1,0.7-1.8,0.9C679.9,617.8,679.1,617.9,678.3,617.9z M674.7,609.9h7.2v-0.1
			c0-0.8-0.1-1.5-0.4-2.1c-0.3-0.6-0.7-1.1-1.2-1.5c-0.5-0.4-1.2-0.5-1.9-0.5s-1.4,0.2-1.9,0.5c-0.5,0.4-0.9,0.8-1.2,1.5
			C674.8,608.3,674.7,609,674.7,609.9L674.7,609.9z"/>
		<path class="st0" d="M696.9,617.7c-0.2,0-0.4-0.1-0.5-0.2c-0.1-0.1-0.2-0.3-0.3-0.5l-3.7-12.2c0-0.1-0.1-0.2-0.1-0.3
			c0-0.2,0.1-0.3,0.2-0.4c0.1-0.1,0.2-0.2,0.4-0.2h1.2c0.2,0,0.3,0.1,0.4,0.2c0.1,0.1,0.2,0.2,0.2,0.3l2.9,9.9l3.1-9.8
			c0-0.1,0.1-0.2,0.2-0.4c0.1-0.1,0.3-0.2,0.5-0.2h0.9c0.2,0,0.4,0.1,0.5,0.2c0.1,0.1,0.2,0.2,0.2,0.4l3.1,9.8l2.9-9.9
			c0-0.1,0.1-0.2,0.2-0.3c0.1-0.1,0.3-0.2,0.4-0.2h1.2c0.1,0,0.3,0.1,0.4,0.2c0.1,0.1,0.2,0.2,0.2,0.4c0,0.1,0,0.2-0.1,0.3
			l-3.7,12.2c-0.1,0.2-0.2,0.4-0.3,0.5c-0.1,0.1-0.3,0.2-0.6,0.2h-1c-0.2,0-0.4-0.1-0.6-0.2c-0.1-0.1-0.2-0.3-0.3-0.5l-3-9.4l-3,9.4
			c-0.1,0.2-0.2,0.4-0.3,0.5c-0.1,0.1-0.3,0.2-0.6,0.2H696.9z"/>
		<path class="st0" d="M714.7,601.5c-0.2,0-0.3-0.1-0.4-0.2c-0.1-0.1-0.2-0.3-0.2-0.4v-1.4c0-0.2,0.1-0.3,0.2-0.4
			c0.1-0.1,0.3-0.2,0.4-0.2h1.7c0.2,0,0.3,0.1,0.4,0.2c0.1,0.1,0.2,0.3,0.2,0.4v1.4c0,0.2-0.1,0.3-0.2,0.4c-0.1,0.1-0.3,0.2-0.4,0.2
			H714.7z M714.9,617.7c-0.2,0-0.3-0.1-0.4-0.2c-0.1-0.1-0.2-0.3-0.2-0.4v-12.4c0-0.2,0.1-0.3,0.2-0.4s0.3-0.2,0.4-0.2h1.3
			c0.2,0,0.3,0.1,0.4,0.2c0.1,0.1,0.2,0.3,0.2,0.4v12.4c0,0.2-0.1,0.3-0.2,0.4c-0.1,0.1-0.3,0.2-0.4,0.2H714.9z"/>
		<path class="st0" d="M726,617.7c-1,0-1.8-0.2-2.4-0.6c-0.6-0.4-1.1-0.9-1.3-1.6c-0.3-0.7-0.4-1.5-0.4-2.5v-6.9h-2
			c-0.2,0-0.3-0.1-0.4-0.2c-0.1-0.1-0.2-0.3-0.2-0.4v-0.9c0-0.2,0.1-0.3,0.2-0.4c0.1-0.1,0.3-0.2,0.4-0.2h2v-4.4
			c0-0.2,0.1-0.3,0.2-0.4c0.1-0.1,0.3-0.2,0.4-0.2h1.2c0.2,0,0.3,0.1,0.4,0.2c0.1,0.1,0.2,0.3,0.2,0.4v4.4h3.2
			c0.2,0,0.3,0.1,0.4,0.2c0.1,0.1,0.2,0.3,0.2,0.4v0.9c0,0.2-0.1,0.3-0.2,0.4c-0.1,0.1-0.3,0.2-0.4,0.2h-3.2v6.7
			c0,0.8,0.1,1.5,0.4,1.9s0.8,0.7,1.5,0.7h1.6c0.2,0,0.3,0.1,0.4,0.2c0.1,0.1,0.2,0.3,0.2,0.4v0.9c0,0.2-0.1,0.3-0.2,0.4
			c-0.1,0.1-0.3,0.2-0.4,0.2H726z"/>
		<path class="st0" d="M731.5,617.7c-0.2,0-0.3-0.1-0.4-0.2c-0.1-0.1-0.2-0.3-0.2-0.4v-17.4c0-0.2,0.1-0.3,0.2-0.4
			c0.1-0.1,0.3-0.2,0.4-0.2h1.3c0.2,0,0.3,0.1,0.4,0.2c0.1,0.1,0.2,0.3,0.2,0.4v6.1c0.5-0.6,1-1.1,1.7-1.4c0.7-0.4,1.5-0.6,2.6-0.6
			c1.1,0,2.1,0.2,2.9,0.7s1.4,1.2,1.8,2.1c0.4,0.9,0.6,1.9,0.6,3.1v7.4c0,0.2-0.1,0.3-0.2,0.4c-0.1,0.1-0.3,0.2-0.4,0.2h-1.3
			c-0.2,0-0.3-0.1-0.4-0.2c-0.1-0.1-0.2-0.3-0.2-0.4v-7.3c0-1.2-0.3-2.2-0.9-2.9s-1.5-1-2.6-1c-1.1,0-2,0.3-2.6,1s-1,1.6-1,2.9v7.3
			c0,0.2-0.1,0.3-0.2,0.4c-0.1,0.1-0.3,0.2-0.4,0.2H731.5z"/>
		<path class="st0" d="M754.2,617.7c-0.2,0-0.3-0.1-0.4-0.2c-0.1-0.1-0.2-0.3-0.2-0.4V600c0-0.2,0.1-0.3,0.2-0.5
			c0.1-0.1,0.3-0.2,0.4-0.2H765c0.2,0,0.3,0.1,0.4,0.2s0.2,0.3,0.2,0.5v1c0,0.2-0.1,0.3-0.2,0.4c-0.1,0.1-0.3,0.2-0.4,0.2h-8.9v5.7
			h8.3c0.2,0,0.3,0.1,0.4,0.2c0.1,0.1,0.2,0.3,0.2,0.5v1c0,0.2-0.1,0.3-0.2,0.4c-0.1,0.1-0.3,0.2-0.4,0.2h-8.3v5.9h9.1
			c0.2,0,0.3,0.1,0.4,0.2c0.1,0.1,0.2,0.3,0.2,0.4v1c0,0.2-0.1,0.3-0.2,0.4c-0.1,0.1-0.3,0.2-0.4,0.2H754.2z"/>
		<path class="st0" d="M768.5,617.7c-0.1,0-0.3-0.1-0.4-0.2c-0.1-0.1-0.2-0.2-0.2-0.4c0-0.1,0-0.1,0-0.2c0-0.1,0.1-0.2,0.1-0.3
			l4.6-5.9l-4.3-5.6c-0.1-0.1-0.1-0.2-0.1-0.3c0-0.1,0-0.1,0-0.2c0-0.2,0.1-0.3,0.2-0.4c0.1-0.1,0.2-0.2,0.4-0.2h1.3
			c0.2,0,0.3,0,0.4,0.1c0.1,0.1,0.2,0.2,0.2,0.3l3.5,4.5l3.5-4.5c0.1-0.1,0.2-0.2,0.2-0.3c0.1-0.1,0.2-0.2,0.4-0.2h1.3
			c0.2,0,0.3,0.1,0.4,0.2c0.1,0.1,0.2,0.2,0.2,0.4c0,0.1,0,0.1,0,0.2c0,0.1-0.1,0.2-0.1,0.3l-4.3,5.7l4.6,5.9
			c0.1,0.1,0.1,0.2,0.1,0.3c0,0.1,0,0.1,0,0.2c0,0.2-0.1,0.3-0.2,0.4c-0.1,0.1-0.2,0.2-0.4,0.2h-1.4c-0.2,0-0.3,0-0.4-0.1
			c-0.1-0.1-0.2-0.2-0.3-0.3l-3.7-4.8l-3.7,4.8c-0.1,0.1-0.2,0.2-0.2,0.2c-0.1,0.1-0.2,0.1-0.4,0.1H768.5z"/>
		<path class="st0" d="M783.9,622.7c-0.2,0-0.3-0.1-0.4-0.2c-0.1-0.1-0.2-0.3-0.2-0.4v-17.4c0-0.2,0.1-0.3,0.2-0.4
			c0.1-0.1,0.3-0.2,0.4-0.2h1.2c0.2,0,0.3,0.1,0.4,0.2c0.1,0.1,0.2,0.3,0.2,0.4v1.2c0.4-0.6,1-1.1,1.7-1.4c0.7-0.4,1.6-0.6,2.6-0.6
			c1,0,1.8,0.2,2.5,0.5c0.7,0.3,1.3,0.8,1.7,1.4c0.4,0.6,0.8,1.2,1,2c0.2,0.7,0.4,1.5,0.4,2.4c0,0.3,0,0.6,0,0.9s0,0.6,0,0.9
			c0,0.8-0.2,1.6-0.4,2.3c-0.2,0.7-0.6,1.4-1,2s-1,1-1.7,1.4c-0.7,0.3-1.5,0.5-2.5,0.5c-1,0-1.9-0.2-2.6-0.6
			c-0.7-0.4-1.3-0.8-1.7-1.4v6.1c0,0.2-0.1,0.3-0.2,0.4c-0.1,0.1-0.2,0.2-0.4,0.2H783.9z M789.5,615.8c0.9,0,1.6-0.2,2.1-0.6
			c0.5-0.4,0.9-0.9,1.1-1.5c0.2-0.6,0.4-1.3,0.4-2.1c0-0.5,0-1,0-1.5c0-0.7-0.2-1.4-0.4-2.1c-0.2-0.6-0.6-1.2-1.1-1.5
			c-0.5-0.4-1.2-0.6-2.1-0.6c-0.9,0-1.5,0.2-2.1,0.6c-0.5,0.4-0.9,0.9-1.2,1.5c-0.3,0.6-0.4,1.3-0.4,1.9c0,0.3,0,0.6,0,1
			c0,0.4,0,0.7,0,1c0,0.6,0.2,1.2,0.4,1.8c0.3,0.6,0.7,1.1,1.2,1.5C788,615.6,788.6,615.8,789.5,615.8z"/>
		<path class="st0" d="M804.3,617.9c-1.8,0-3.3-0.6-4.3-1.7c-1.1-1.1-1.7-2.6-1.8-4.5c0-0.2,0-0.5,0-0.9s0-0.7,0-0.9
			c0.1-1.2,0.4-2.3,0.9-3.3s1.2-1.7,2.1-2.2c0.9-0.5,1.9-0.8,3.1-0.8c1.3,0,2.4,0.3,3.3,0.8c0.9,0.6,1.6,1.4,2.1,2.4
			c0.5,1,0.7,2.2,0.7,3.6v0.4c0,0.2-0.1,0.3-0.2,0.4s-0.3,0.2-0.4,0.2h-9.1c0,0,0,0.1,0,0.1c0,0.1,0,0.1,0,0.1c0,0.7,0.2,1.4,0.5,2
			c0.3,0.6,0.7,1.1,1.2,1.5c0.5,0.4,1.2,0.6,1.9,0.6c0.6,0,1.2-0.1,1.6-0.3c0.4-0.2,0.8-0.4,1-0.6c0.3-0.2,0.4-0.4,0.5-0.6
			c0.2-0.2,0.3-0.3,0.4-0.4c0.1,0,0.2-0.1,0.4-0.1h1.3c0.2,0,0.3,0,0.4,0.1c0.1,0.1,0.2,0.2,0.1,0.4c0,0.3-0.2,0.6-0.4,1
			c-0.3,0.4-0.6,0.7-1.1,1.1c-0.5,0.4-1.1,0.7-1.8,0.9C806,617.8,805.2,617.9,804.3,617.9z M800.8,609.9h7.2v-0.1
			c0-0.8-0.1-1.5-0.4-2.1c-0.3-0.6-0.7-1.1-1.2-1.5c-0.5-0.4-1.2-0.5-1.9-0.5s-1.4,0.2-1.9,0.5c-0.5,0.4-0.9,0.8-1.2,1.5
			C800.9,608.3,800.8,609,800.8,609.9L800.8,609.9z"/>
		<path class="st0" d="M814.2,617.7c-0.2,0-0.3-0.1-0.4-0.2c-0.1-0.1-0.2-0.3-0.2-0.4v-12.4c0-0.2,0.1-0.3,0.2-0.4
			c0.1-0.1,0.3-0.2,0.4-0.2h1.2c0.2,0,0.3,0.1,0.4,0.2c0.1,0.1,0.2,0.3,0.2,0.4v1.2c0.3-0.6,0.8-1,1.4-1.3s1.4-0.4,2.2-0.4h1
			c0.2,0,0.3,0.1,0.4,0.2s0.2,0.3,0.2,0.4v1.1c0,0.2-0.1,0.3-0.2,0.4c-0.1,0.1-0.3,0.2-0.4,0.2h-1.6c-0.9,0-1.7,0.3-2.2,0.8
			c-0.5,0.6-0.8,1.3-0.8,2.2v7.7c0,0.2-0.1,0.3-0.2,0.4c-0.1,0.1-0.3,0.2-0.4,0.2H814.2z"/>
		<path class="st0" d="M828.8,617.7c-1,0-1.8-0.2-2.4-0.6c-0.6-0.4-1.1-0.9-1.3-1.6c-0.3-0.7-0.4-1.5-0.4-2.5v-6.9h-2
			c-0.2,0-0.3-0.1-0.4-0.2c-0.1-0.1-0.2-0.3-0.2-0.4v-0.9c0-0.2,0.1-0.3,0.2-0.4c0.1-0.1,0.3-0.2,0.4-0.2h2v-4.4
			c0-0.2,0.1-0.3,0.2-0.4c0.1-0.1,0.3-0.2,0.4-0.2h1.2c0.2,0,0.3,0.1,0.4,0.2c0.1,0.1,0.2,0.3,0.2,0.4v4.4h3.2
			c0.2,0,0.3,0.1,0.4,0.2c0.1,0.1,0.2,0.3,0.2,0.4v0.9c0,0.2-0.1,0.3-0.2,0.4c-0.1,0.1-0.3,0.2-0.4,0.2h-3.2v6.7
			c0,0.8,0.1,1.5,0.4,1.9s0.8,0.7,1.5,0.7h1.6c0.2,0,0.3,0.1,0.4,0.2c0.1,0.1,0.2,0.3,0.2,0.4v0.9c0,0.2-0.1,0.3-0.2,0.4
			c-0.1,0.1-0.3,0.2-0.4,0.2H828.8z"/>
		<path class="st0" d="M834.2,601.5c-0.2,0-0.3-0.1-0.4-0.2c-0.1-0.1-0.2-0.3-0.2-0.4v-1.4c0-0.2,0.1-0.3,0.2-0.4
			c0.1-0.1,0.3-0.2,0.4-0.2h1.7c0.2,0,0.3,0.1,0.4,0.2c0.1,0.1,0.2,0.3,0.2,0.4v1.4c0,0.2-0.1,0.3-0.2,0.4c-0.1,0.1-0.3,0.2-0.4,0.2
			H834.2z M834.4,617.7c-0.2,0-0.3-0.1-0.4-0.2c-0.1-0.1-0.2-0.3-0.2-0.4v-12.4c0-0.2,0.1-0.3,0.2-0.4s0.3-0.2,0.4-0.2h1.3
			c0.2,0,0.3,0.1,0.4,0.2c0.1,0.1,0.2,0.3,0.2,0.4v12.4c0,0.2-0.1,0.3-0.2,0.4c-0.1,0.1-0.3,0.2-0.4,0.2H834.4z"/>
		<path class="st0" d="M845,617.9c-1,0-1.8-0.1-2.5-0.4c-0.7-0.2-1.3-0.5-1.7-0.9c-0.4-0.3-0.8-0.7-1-1s-0.3-0.6-0.4-0.8
			c0-0.2,0-0.3,0.2-0.4c0.1-0.1,0.3-0.2,0.4-0.2h1.2c0.1,0,0.2,0,0.2,0c0.1,0,0.1,0.1,0.2,0.2c0.2,0.2,0.5,0.5,0.8,0.7
			s0.6,0.4,1,0.6c0.4,0.2,0.9,0.2,1.5,0.2c0.9,0,1.6-0.2,2.2-0.5c0.6-0.3,0.9-0.8,0.9-1.5c0-0.4-0.1-0.8-0.4-1
			c-0.2-0.3-0.7-0.5-1.3-0.7c-0.6-0.2-1.4-0.4-2.5-0.7c-1-0.2-1.9-0.5-2.5-0.9c-0.6-0.4-1-0.8-1.3-1.3c-0.3-0.5-0.4-1.1-0.4-1.7
			c0-0.6,0.2-1.3,0.6-1.9c0.4-0.6,0.9-1.1,1.7-1.5c0.7-0.4,1.7-0.6,2.8-0.6c0.9,0,1.7,0.1,2.3,0.3c0.6,0.2,1.2,0.5,1.6,0.9
			c0.4,0.3,0.7,0.7,0.9,1c0.2,0.3,0.3,0.6,0.3,0.8c0,0.2,0,0.3-0.2,0.4c-0.1,0.1-0.3,0.2-0.4,0.2h-1.1c-0.1,0-0.2,0-0.3-0.1
			c-0.1-0.1-0.2-0.1-0.2-0.2c-0.2-0.2-0.4-0.5-0.6-0.7c-0.2-0.2-0.5-0.4-0.9-0.6c-0.4-0.1-0.9-0.2-1.5-0.2c-0.9,0-1.5,0.2-2,0.6
			c-0.4,0.4-0.7,0.8-0.7,1.4c0,0.3,0.1,0.6,0.3,0.9s0.6,0.5,1.1,0.7c0.5,0.2,1.3,0.4,2.4,0.7c1.2,0.2,2.1,0.5,2.7,0.9
			c0.7,0.4,1.1,0.8,1.4,1.3c0.3,0.5,0.4,1.1,0.4,1.8c0,0.7-0.2,1.4-0.6,2s-1,1.1-1.9,1.5C847.2,617.8,846.2,617.9,845,617.9z"/>
		<path class="st0" d="M859.1,617.9c-1.8,0-3.3-0.6-4.3-1.7c-1.1-1.1-1.7-2.6-1.8-4.5c0-0.2,0-0.5,0-0.9s0-0.7,0-0.9
			c0.1-1.2,0.4-2.3,0.9-3.3s1.2-1.7,2.1-2.2c0.9-0.5,1.9-0.8,3.1-0.8c1.3,0,2.4,0.3,3.3,0.8c0.9,0.6,1.6,1.4,2.1,2.4
			c0.5,1,0.7,2.2,0.7,3.6v0.4c0,0.2-0.1,0.3-0.2,0.4s-0.3,0.2-0.4,0.2h-9.1c0,0,0,0.1,0,0.1c0,0.1,0,0.1,0,0.1c0,0.7,0.2,1.4,0.5,2
			c0.3,0.6,0.7,1.1,1.2,1.5c0.5,0.4,1.2,0.6,1.9,0.6c0.6,0,1.2-0.1,1.6-0.3c0.4-0.2,0.8-0.4,1-0.6c0.3-0.2,0.4-0.4,0.5-0.6
			c0.2-0.2,0.3-0.3,0.4-0.4c0.1,0,0.2-0.1,0.4-0.1h1.3c0.2,0,0.3,0,0.4,0.1c0.1,0.1,0.2,0.2,0.1,0.4c0,0.3-0.2,0.6-0.4,1
			c-0.3,0.4-0.6,0.7-1.1,1.1c-0.5,0.4-1.1,0.7-1.8,0.9C860.8,617.8,860,617.9,859.1,617.9z M855.5,609.9h7.2v-0.1
			c0-0.8-0.1-1.5-0.4-2.1c-0.3-0.6-0.7-1.1-1.2-1.5c-0.5-0.4-1.2-0.5-1.9-0.5s-1.4,0.2-1.9,0.5c-0.5,0.4-0.9,0.8-1.2,1.5
			C855.6,608.3,855.5,609,855.5,609.9L855.5,609.9z"/>
	</g>
</g>
</svg>
